<svg width="19" height="18" viewBox="0 0 19 18" fill="none" xmlns="http://www.w3.org/2000/svg">
<path d="M15.8321 14.6537L4.52466 3.34631M8.14303 7.82523C7.86154 8.13557 7.69074 8.54322 7.69074 8.98969C7.69074 9.96197 8.50074 10.7501 9.49992 10.7501C9.96062 10.7501 10.3811 10.5826 10.7005 10.3067M15.8613 10.7501C16.4841 9.81778 16.7367 9.0574 16.7367 9.0574C16.7367 9.0574 15.0898 3.79861 9.49992 3.79861C9.1861 3.79861 8.8847 3.81518 8.59533 3.84647M13.5706 13.0326C12.5323 13.695 11.1955 14.1634 9.49992 14.1356C3.97959 14.0454 2.26318 9.0574 2.26318 9.0574C2.26318 9.0574 3.06062 6.51094 5.42926 4.96201" stroke="#95979F" stroke-width="1.5" stroke-linecap="round"/>
</svg>
