<svg width="19" height="18" viewBox="0 0 19 18" fill="none" xmlns="http://www.w3.org/2000/svg">
<path fill-rule="evenodd" clip-rule="evenodd" d="M2.6525 9.07783C2.70266 9.1923 2.77342 9.34356 2.86689 9.52094C3.09275 9.94954 3.44707 10.5226 3.95759 11.0966C4.97037 12.2353 6.59275 13.3772 9.09794 13.4181C11.587 13.4589 13.1987 12.326 14.2094 11.1693C14.7193 10.5858 15.0738 9.99711 15.3003 9.55439C15.3974 9.36447 15.4702 9.2031 15.5209 9.08282C15.4715 8.95978 15.4003 8.79395 15.3043 8.59831C15.0826 8.14611 14.7337 7.54394 14.2273 6.94436C13.2234 5.75576 11.6095 4.58102 9.08568 4.58102C6.56185 4.58102 4.94799 5.75576 3.94406 6.94436C3.43763 7.54394 3.08873 8.14611 2.86701 8.59831C2.77237 8.79131 2.70173 8.95531 2.6525 9.07783ZM16.3224 9.08981C17.0381 8.86568 17.038 8.86532 17.0379 8.86494L17.037 8.862L17.0352 8.85639L17.0297 8.8395C17.0251 8.82576 17.0189 8.80711 17.0108 8.78388C16.9946 8.73743 16.9711 8.67255 16.9397 8.5919C16.877 8.43072 16.7824 8.20565 16.6512 7.93794C16.3894 7.40412 15.9773 6.69159 15.3732 5.97646C14.1563 4.53567 12.1518 3.08102 9.08568 3.08102C6.01959 3.08102 4.01507 4.53567 2.79812 5.97646C2.1941 6.69159 1.78193 7.40412 1.52019 7.93794C1.38893 8.20565 1.29437 8.43072 1.23166 8.5919C1.20028 8.67255 1.17679 8.73743 1.16059 8.78388C1.15249 8.80711 1.14621 8.82576 1.14168 8.8395L1.13617 8.85639L1.13437 8.862L1.13371 8.86408C1.1336 8.86446 1.13321 8.86568 1.84894 9.08981L1.13321 8.86568L1.05957 9.10084L1.13975 9.33385L1.84894 9.08981C1.13975 9.33385 1.13962 9.33347 1.13975 9.33385L1.1403 9.33544L1.14102 9.3375L1.14294 9.34298L1.14878 9.35932C1.15358 9.37256 1.16018 9.39047 1.16865 9.41274C1.1856 9.45725 1.21008 9.51925 1.24263 9.59627C1.30768 9.75019 1.40528 9.96484 1.53987 10.2202C1.80835 10.7297 2.22815 11.4092 2.83678 12.0935C4.06228 13.4714 6.05827 14.8686 9.07341 14.9179C12.1047 14.9675 14.1114 13.5612 15.339 12.1563C15.9482 11.459 16.3678 10.7611 16.6357 10.2376C16.77 9.975 16.8673 9.75397 16.9321 9.59557C16.9645 9.5163 16.9888 9.45251 17.0057 9.40679C17.0141 9.38393 17.0206 9.36557 17.0253 9.35203L17.0311 9.33537L17.033 9.32983L17.0337 9.32777C17.0338 9.32739 17.0342 9.32618 16.3224 9.08981ZM16.3224 9.08981L17.0342 9.32618L17.1104 9.09657L17.0379 8.86494L16.3224 9.08981ZM2.56411 9.31571C2.564 9.31605 2.56402 9.31599 2.56411 9.31571ZM9.08568 8.01165C8.48127 8.01165 8.02649 8.48321 8.02649 9.0221C8.02649 9.56099 8.48127 10.0326 9.08568 10.0326C9.69008 10.0326 10.1449 9.56099 10.1449 9.0221C10.1449 8.48321 9.69008 8.01165 9.08568 8.01165ZM6.52649 9.0221C6.52649 7.61644 7.69171 6.51165 9.08568 6.51165C10.4796 6.51165 11.6449 7.61644 11.6449 9.0221C11.6449 10.4278 10.4796 11.5326 9.08568 11.5326C7.69171 11.5326 6.52649 10.4278 6.52649 9.0221Z" fill="#95979F"/>
</svg>
